<svg width="1012" height="886" viewBox="0 0 1012 886" fill="none" xmlns="http://www.w3.org/2000/svg">
<path d="M2.73 818.67C0.97 813.69 0 808.34 0 802.78V48.94C0 21.91 22.68 0 50.66 0H392.36C408.94 0 424.95 5.9 437.33 16.56L529.52 96.02C541.9 106.68 557.9 112.58 574.49 112.58H959.15C987.13 112.58 1009.81 134.49 1009.81 161.52V225.33L2.73 818.67Z" fill="#2099D2" style="fill:#2099D2;fill:color(display-p3 0.1255 0.6000 0.8235);fill-opacity:1;"/>
<path d="M1011.5 209.54L1004.96 848.62C998.641 870.59 977.931 885.79 954.331 885.79H52.5804C17.9004 885.79 -7.26962 853.91 1.90038 821.6L1.90038 269.5C7.94038 248.24 27.9404 233.5 50.7604 233.5H483.24C495.3 233.5 507.13 230.39 517.52 224.47L636.91 156.53C647.29 150.62 659.13 147.5 671.19 147.5H982.99C1016.49 147.5 1011.5 177 1011.5 209.54Z" fill="#76D0F7" style="fill:#76D0F7;fill:color(display-p3 0.4627 0.8157 0.9686);fill-opacity:1;"/>
</svg>
