<svg width="1169" height="886" viewBox="0 0 1169 886" fill="none" xmlns="http://www.w3.org/2000/svg">
<path d="M2.73049 818.67C0.970488 813.69 0.000488281 808.34 0.000488281 802.78V48.94C0.000488281 21.91 22.6805 0 50.6605 0H392.36C408.94 0 424.95 5.9 437.33 16.56L529.521 96.02C541.901 106.68 557.9 112.58 574.49 112.58H959.151C987.131 112.58 1009.81 134.49 1009.81 161.52V225.33L2.73049 818.67Z" fill="#2099D2" style="fill:#2099D2;fill:color(display-p3 0.1255 0.6000 0.8235);fill-opacity:1;"/>
<path d="M937.88 171.27H98.2603C83.2548 171.27 71.0903 183.434 71.0903 198.44V786.43C71.0903 801.436 83.2548 813.6 98.2603 813.6H937.88C952.886 813.6 965.05 801.436 965.05 786.43V198.44C965.05 183.434 952.886 171.27 937.88 171.27Z" fill="#DDDDE8" style="fill:#DDDDE8;fill:color(display-p3 0.8667 0.8667 0.9098);fill-opacity:1;"/>
<path d="M964.9 193.75H125.28C110.275 193.75 98.1104 205.914 98.1104 220.92V808.91C98.1104 823.916 110.275 836.08 125.28 836.08H964.9C979.906 836.08 992.07 823.916 992.07 808.91V220.92C992.07 205.914 979.906 193.75 964.9 193.75Z" fill="white" style="fill:white;fill-opacity:1;"/>
<path d="M1166.44 287.37L1004.96 848.62C998.64 870.59 977.93 885.79 954.33 885.79H52.5804C17.9004 885.79 -7.26962 853.91 1.90038 821.6L136.54 347.32C142.58 326.06 162.58 311.32 185.4 311.32H617.88C629.94 311.32 641.77 308.21 652.16 302.29L771.55 234.35C781.93 228.44 793.77 225.32 805.83 225.32H1117.63C1151.13 225.32 1175.41 256.18 1166.44 287.36" fill="#76D0F7" style="fill:#76D0F7;fill:color(display-p3 0.4627 0.8157 0.9686);fill-opacity:1;"/>
</svg>
