<svg width="202" height="168" viewBox="0 0 202 168" fill="none" xmlns="http://www.w3.org/2000/svg">
<g clip-path="url(#clip0_23_2)">
<path d="M82 0L73.93 9.43L46 102H107.5C108.21 102 115.87 96.18 117.99 96L110 124H0L6.03 118.53C16.16 88.27 26.18 57.47 35.27 26.77C36.46 22.75 40.64 11.38 40.75 8.33C40.85 5.67 37.34 3.11 38 0L82 0Z" fill="white"/>
<path d="M63 98C68.44 81.01 79.16 65.46 94.09 55.59C116.48 40.78 150.06 37.11 176.01 42.49C179.35 43.18 192.2 47.73 193.5 47.6C194.8 47.47 201.67 41.6 201.99 42L191.99 76C159.4 57.69 113.12 56.84 99 98H63Z" fill="white"/>
<path d="M95 128C97.81 144.84 120.15 144.68 133.54 144.04C146.93 143.4 161.17 140.94 172.99 136L165.97 157.47C158.58 160.49 151.03 163.06 143.19 164.69C112.8 170.98 56.7 170.93 57 128H95Z" fill="white"/>
</g>
<defs>
<clipPath id="clip0_23_2">
<rect width="201.99" height="167.68" fill="white"/>
</clipPath>
</defs>
</svg>
